<?xml version="1.0" encoding="UTF-8" standalone="no"?>
<!-- Created with Inkscape (http://www.inkscape.org/) -->

<svg
   xmlns:dc="http://purl.org/dc/elements/1.1/"
   xmlns:cc="http://creativecommons.org/ns#"
   xmlns:rdf="http://www.w3.org/1999/02/22-rdf-syntax-ns#"
   xmlns:svg="http://www.w3.org/2000/svg"
   xmlns="http://www.w3.org/2000/svg"
   xmlns:sodipodi="http://sodipodi.sourceforge.net/DTD/sodipodi-0.dtd"
   xmlns:inkscape="http://www.inkscape.org/namespaces/inkscape"
   width="265"
   height="100"
   id="svg2"
   version="1.1"
   inkscape:version="0.48.4 r9939"
   sodipodi:docname="logo.svg">
  <defs
     id="defs4">
    <linearGradient
       id="linearGradient3842">
      <stop
         style="stop-color:#80b3ff;stop-opacity:1;"
         offset="0"
         id="stop3844" />
      <stop
         style="stop-color:#80b3ff;stop-opacity:1;"
         offset="1"
         id="stop3846" />
    </linearGradient>
    <linearGradient
       id="linearGradient3796">
      <stop
         style="stop-color:#ffffff;stop-opacity:1;"
         offset="0"
         id="stop3798" />
      <stop
         style="stop-color:#44aa00;stop-opacity:1;"
         offset="1"
         id="stop3800" />
    </linearGradient>
    <linearGradient
       id="linearGradient3768">
      <stop
         style="stop-color:#caccd2;stop-opacity:1;"
         offset="0"
         id="stop3770" />
      <stop
         id="stop3780"
         offset="1"
         style="stop-color:#466150;stop-opacity:1;" />
    </linearGradient>
  </defs>
  <sodipodi:namedview
     id="base"
     pagecolor="#ffffff"
     bordercolor="#666666"
     borderopacity="1.0"
     inkscape:pageopacity="0.0"
     inkscape:pageshadow="2"
     inkscape:zoom="5.4079784"
     inkscape:cx="225.90399"
     inkscape:cy="5.6395707"
     inkscape:document-units="px"
     inkscape:current-layer="layer1"
     showgrid="false"
     inkscape:window-width="1366"
     inkscape:window-height="744"
     inkscape:window-x="0"
     inkscape:window-y="24"
     inkscape:window-maximized="1" />
  <metadata
     id="metadata7">
    <rdf:RDF>
      <cc:Work
         rdf:about="">
        <dc:format>image/svg+xml</dc:format>
        <dc:type
           rdf:resource="http://purl.org/dc/dcmitype/StillImage" />
        <dc:title></dc:title>
      </cc:Work>
    </rdf:RDF>
  </metadata>
  <g
     inkscape:label="Capa 1"
     inkscape:groupmode="layer"
     id="layer1"
     transform="translate(0,-952.36218)">
    <path
       style="fill:#000000"
       d=""
       id="path2996"
       inkscape:connector-curvature="0" />
    <path
       id="path3889"
       style="fill:#ffffff;fill-opacity:1;stroke:#808080;stroke-width:0.5876227"
       d="m 50.22957,1034.4371 c 6.050469,-4.7603 9.707188,-8.176 14.196067,-12.6509 5.128419,-5.1125 10.056017,-10.459 14.503786,-16.1735 6.831966,-8.77767 11.860829,-15.55564 18.613995,-27.69539 2.651262,-4.74494 4.948732,-9.79813 6.420822,-14.27659 0.78776,-3.54426 1.4737,-6.97041 0.52677,-8.12283 -0.73458,-0.66719 -1.65957,-1.41611 -2.9446,-1.39522 -1.46273,0.15264 -4.610388,1.41611 -8.776886,4.76802 -5.093578,4.06988 -9.943475,8.41728 -15.309158,14.25587 -2.402548,2.63056 -4.581036,4.86231 -6.152979,6.80069 -4.434601,5.50884 -9.382296,11.96651 -9.382296,11.96651 0,0 6.265545,-6.43679 10.638057,-11.05465 3.989224,-4.0904 6.752678,-6.20714 8.491953,-7.53076 1.857464,-1.43071 3.304896,-2.39556 5.580571,-2.97484 2.48173,-0.3702 2.805199,-0.10817 3.255283,0.19885 0.752321,0.85658 0.749001,1.30426 0.661075,3.06719 -0.02973,1.19508 -0.196483,2.25421 -0.604681,3.93419 -0.46387,1.63943 -2.19674,5.04364 -3.413712,7.50924 -1.057175,2.14186 -2.158462,4.2655 -3.374377,6.3214 -2.465723,4.16911 -5.146505,8.21285 -7.93736,12.17162 -2.552316,3.6205 -5.25491,7.1366 -8.044931,10.5772 -2.692205,3.32 -5.435398,6.608 -8.382538,9.7039 -2.961238,3.1108 -6.065337,6.0947 -9.324052,8.8923 -2.926285,2.5121 -7.134163,5.6633 -9.160826,7.0673 -0.452241,0.3077 4.949687,-1.449 9.920017,-5.3596 z"
       inkscape:connector-curvature="0"
       sodipodi:nodetypes="saaccccccccccccccaaaaaacs" />
    <path
       style="fill:#ffffff;stroke:#808080;stroke-width:0.5876227"
       d="m 65.120289,1025.3715 c 0,0 -11.760929,0.2763 -17.628682,0.6611 -3.926231,0.2575 -7.864484,0.4974 -11.752454,1.1017 -3.516429,0.5467 -7.051702,1.1595 -10.430303,2.2771 -1.671399,0.5529 -3.360333,1.1794 -4.81377,2.1728 -0.720567,0.4925 -1.543656,1.023 -1.870439,1.8322 -0.325337,0.8057 -0.352503,1.8484 0.07345,2.6057 0.729099,1.2964 2.392894,1.8068 3.746095,2.424 3.32769,1.5178 6.958969,2.3068 10.540482,3.0483 4.265976,0.8832 8.625191,1.2658 12.964426,1.6527 3.345454,0.2982 6.70494,0.4493 10.063039,0.5141 5.900068,0.114 11.808903,0.086 17.702136,-0.2203 3.486612,-0.181 6.982961,-0.4025 10.430302,-0.9549 3.498113,-0.5604 7.009188,-1.2954 10.356851,-2.3861 1.935617,-0.6306 3.58367,-1.1325 5.312346,-1.8623 1.982332,-0.837 5.779042,-2.8765 5.779042,-2.8765 0,0 -5.14064,1.9852 -7.807524,2.6487 -2.220297,0.5525 -3.108776,0.8159 -6.649708,1.3482 -6.183043,0.8558 -11.41057,0.9713 -16.967606,0.9548 -6.249215,-0.032 -12.52335,-0.25 -18.743462,-0.9118 -2.245465,-0.2389 -4.458041,-0.7232 -6.684208,-1.1018 -1.886951,-0.3209 -3.813754,-0.4718 -5.655869,-0.9916 -1.634355,-0.4612 -3.26955,-1.0197 -4.737708,-1.8731 -0.895895,-0.5207 -1.934031,-1.0333 -2.423943,-1.9465 -0.191783,-0.3574 -0.248277,-0.8305 -0.11018,-1.212 0.271112,-0.7488 1.020043,-1.2578 1.689416,-1.6894 1.19828,-0.7724 2.641469,-1.0835 4.003179,-1.5058 0.83094,-0.2576 1.683769,-0.4406 2.534123,-0.6243 2.093488,-0.4522 4.199505,-0.8532 6.316944,-1.1752 1.85251,-0.2817 3.723589,-0.4247 5.582416,-0.6611 3.064025,-0.3897 9.181606,-1.2487 9.181606,-1.2487 z"
       id="path3885"
       inkscape:connector-curvature="0"
       sodipodi:nodetypes="caaaaaaaaaaaasacsccaaaaaaaaaaac" />
    <path
       style="fill:#ffffff;stroke:#808080;stroke-width:0.5876227"
       d="m 72.815785,1046.179 c -6.065277,-2.5611 -11.761328,-5.605 -17.104994,-9.2832 -9.171057,-6.3128 -17.437375,-13.9141 -25.363288,-21.7333 -6.18668,-6.1033 -11.453454,-12.0669 -17.231149,-19.56576 -3.2712841,-4.17633 -6.7308947,-8.5154 -8.9272051,-13.41808 -0.6892167,-1.53848 -1.2434624,-3.20805 -1.2771156,-4.89353 -0.016042,-0.80187 0.092662,-1.66816 0.5141699,-2.35049 0.4300634,-0.69618 1.1157896,-1.34451 1.9097737,-1.54251 1.3791211,-0.34392 2.8412028,0.35018 4.186812,0.80798 2.6173121,0.89046 5.0065391,2.35894 7.4124371,3.72089 2.825507,1.59949 5.56739,3.3524 8.226718,5.21515 2.659398,1.86281 5.162048,3.94035 7.712548,5.94968 2.209197,1.74044 4.48845,3.40179 6.574029,5.28861 4.037879,3.65309 11.458643,11.64226 11.458643,11.64226 0,0 -11.24409,-9.75779 -17.371597,-13.95603 -2.076911,-1.42299 -4.214547,-2.8116 -6.537302,-3.78282 -1.580993,-0.66106 -3.244947,-1.40091 -4.958067,-1.35888 -0.74695,0.0183 -1.662408,0.11513 -2.130132,0.6978 -0.700781,0.873 -0.484236,2.23324 -0.330538,3.34211 0.193205,1.39388 0.897329,2.67913 1.54251,3.92972 1.313918,2.54683 3.034983,4.86648 4.700981,7.1984 2.129721,2.9808 4.396905,5.866 6.757662,8.6674 2.367808,2.8098 4.819064,5.5565 7.418736,8.1532 5.205756,5.2 10.56065,10.2877 16.343257,14.8375 5.243611,4.1258 10.772236,7.9252 16.563616,11.2383 2.79702,1.7122 4.336386,2.4487 4.473337,2.501 0.314601,0.12 -1.482984,-0.2353 -4.563842,-1.3054 z"
       id="path3115"
       inkscape:connector-curvature="0"
       sodipodi:nodetypes="caacaaaaaaaaacaaaaaaaaaacsc" />
    <path
       sodipodi:type="arc"
       style="fill:#ffffff;fill-opacity:1;fill-rule:evenodd;stroke:#808080"
       id="path3043"
       sodipodi:cx="337.05356"
       sodipodi:cy="316.55862"
       sodipodi:rx="14.553572"
       sodipodi:ry="14.553572"
       d="m 351.60713,316.55862 a 14.553572,14.553572 0 1 1 -29.10714,0 14.553572,14.553572 0 1 1 29.10714,0 z"
       transform="matrix(0.6294464,0,0,0.6294464,-147.38932,841.8742)" />
    <path
       sodipodi:type="arc"
       style="fill:#ffffff;fill-opacity:1;fill-rule:evenodd;stroke:#808080"
       id="path3043-2"
       sodipodi:cx="337.05356"
       sodipodi:cy="316.55862"
       sodipodi:rx="14.553572"
       sodipodi:ry="14.553572"
       d="m 351.60713,316.55862 a 14.553572,14.553572 0 1 1 -29.10714,0 14.553572,14.553572 0 1 1 29.10714,0 z"
       transform="matrix(0.30607037,0,0,0.30607037,-55.269316,913.86066)" />
    <path
       sodipodi:type="arc"
       style="fill:#ffffff;fill-opacity:1;fill-rule:evenodd;stroke:#808080"
       id="path3043-5"
       sodipodi:cx="337.05356"
       sodipodi:cy="316.55862"
       sodipodi:rx="14.553572"
       sodipodi:ry="14.553572"
       d="m 351.60713,316.55862 a 14.553572,14.553572 0 1 1 -29.10714,0 14.553572,14.553572 0 1 1 29.10714,0 z"
       transform="matrix(0.50049005,0,0,0.50049005,-85.38739,841.03074)" />
    <path
       sodipodi:type="arc"
       style="fill:#ffffff;fill-opacity:1;fill-rule:evenodd;stroke:#808080"
       id="path3043-4"
       sodipodi:cx="337.05356"
       sodipodi:cy="316.55862"
       sodipodi:rx="14.553572"
       sodipodi:ry="14.553572"
       d="m 351.60713,316.55862 a 14.553572,14.553572 0 1 1 -29.10714,0 14.553572,14.553572 0 1 1 29.10714,0 z"
       transform="matrix(0.37153371,0,0,0.37153371,-65.898196,877.60495)" />
    <path
       style="fill:#ffffff;stroke:#999999;stroke-width:0.52886039;stroke-miterlimit:4;stroke-dasharray:none"
       d="m 231.69491,1039.4818 c -0.42492,-0.1228 -0.4631,-0.1817 -0.4631,-0.7149 0,-0.4973 0.036,-0.5665 0.24935,-0.4792 0.62738,0.2565 1.23733,0.3715 1.552,0.2925 0.51879,-0.1303 0.90597,-0.5947 0.90597,-1.0868 l 0,-0.4377 -0.37545,0.2952 c -0.5127,0.4034 -1.45193,0.3969 -1.97369,-0.014 -0.53943,-0.4243 -0.78567,-1.0897 -0.78567,-2.123 0,-1.4446 0.6681,-2.4127 1.66496,-2.4127 0.55317,0 1.32033,0.3483 1.34159,0.6092 0.008,0.096 0.0588,0.014 0.1133,-0.1818 0.0867,-0.3118 0.17817,-0.3563 0.73385,-0.3563 l 0.6348,0 0.043,2.1374 c 0.0236,1.1755 0.004,2.4126 -0.0453,2.749 -0.20903,1.4485 -1.8396,2.2296 -3.59565,1.7226 z m 2.03485,-3.3099 c 0.27524,-0.393 0.26795,-1.5135 -0.0124,-1.9137 -0.1421,-0.2029 -0.36963,-0.3167 -0.63313,-0.3167 -0.56531,0 -0.85548,0.4592 -0.85277,1.3497 0.002,0.7794 0.0722,0.9496 0.48113,1.173 0.35471,0.1939 0.75783,0.078 1.01721,-0.2923 z m -46.95529,2.1029 0,-1.2238 -0.43842,0.3688 c -0.65451,0.5508 -1.44178,0.5121 -2.05475,-0.1008 -1.03345,-1.0334 -1.03345,-3.0142 0,-4.0477 0.61297,-0.6129 1.40024,-0.6516 2.05475,-0.1009 l 0.43842,0.3689 0,-0.3689 c 0,-0.3422 0.0464,-0.3688 0.64121,-0.3688 l 0.6412,0 0,3.3485 0,3.3485 -0.6412,0 -0.64121,0 z m -0.3478,-1.9203 c 0.19053,-0.2105 0.26638,-0.5121 0.26638,-1.0594 0,-0.8997 -0.31329,-1.3536 -0.93444,-1.3536 -0.30078,0 -0.45638,0.1057 -0.61913,0.4203 -0.48253,0.9332 -0.11602,2.287 0.61913,2.287 0.22501,0 0.51888,-0.1295 0.66806,-0.2943 z m -80.62354,1.3506 c -0.0585,-0.059 -0.10632,-1.5472 -0.10632,-3.3083 l 0,-3.2018 1.67476,0.069 c 1.8682,0.077 2.29128,0.2222 3.00031,1.0297 0.55365,0.6306 0.79215,1.4868 0.70001,2.5131 -0.11767,1.3107 -0.68905,2.1987 -1.67552,2.6038 -0.54905,0.2255 -3.42639,0.4613 -3.59324,0.2945 z m 2.48499,-1.3462 c 0.81904,-0.2275 1.25596,-0.8517 1.25596,-1.7942 0,-1.3233 -0.62783,-2.0482 -1.77407,-2.0482 l -0.50579,0 0,1.995 c 0,2.2233 -0.044,2.1439 1.0239,1.8474 z m 4.05743,1.0577 c -0.73273,-0.7328 -0.64488,-1.8782 0.18728,-2.442 0.36776,-0.2492 0.67486,-0.3206 1.37831,-0.3206 0.97043,0 1.14389,-0.1684 0.66592,-0.6464 -0.18586,-0.1859 -0.41622,-0.2243 -1.03306,-0.1725 -0.43662,0.036 -0.90607,0.1146 -1.04323,0.1731 -0.214,0.091 -0.24935,0.025 -0.24935,-0.4725 0,-0.5488 0.0258,-0.5836 0.49962,-0.6724 0.2748,-0.051 0.95558,-0.068 1.51286,-0.036 0.92182,0.052 1.04924,0.098 1.41241,0.504 0.46899,0.5249 0.60637,1.3353 0.53836,3.1756 l -0.0447,1.2112 -0.67685,0.043 c -0.6477,0.041 -0.67681,0.027 -0.67681,-0.3333 l 0,-0.3767 -0.43842,0.3689 c -0.61271,0.5156 -1.5149,0.5141 -2.0323,-0.01 z m 2.17539,-1.0007 c 0.48141,-0.6121 0.3954,-0.907 -0.26447,-0.907 -0.59637,0 -1.00761,0.2832 -1.00761,0.6941 0,0.651 0.81962,0.7881 1.27208,0.2129 z m 3.00267,-1.1208 0,-2.4935 0.64121,0 c 0.59483,0 0.64121,0.026 0.64121,0.3688 l 0,0.3689 0.4384,-0.3689 c 0.6131,-0.5158 1.30652,-0.4982 1.85182,0.047 0.29768,0.2977 0.44645,0.3661 0.52337,0.2407 0.21263,-0.3465 0.82119,-0.6566 1.28848,-0.6566 1.18537,0 1.4551,0.5817 1.4551,3.1381 l 0,1.8647 -0.67683,-0.043 -0.67686,-0.043 -0.0351,-1.5674 c -0.0448,-1.9997 -0.094,-2.2086 -0.52007,-2.2086 -0.5905,0 -0.72203,0.3497 -0.79845,2.1229 l -0.0712,1.6531 -0.67683,0.043 -0.67683,0.043 0,-1.6558 c 0,-1.7274 -0.12016,-2.2071 -0.5529,-2.2071 -0.5932,0 -0.77927,0.4873 -0.84535,2.2137 l -0.0625,1.6336 -0.62329,0 -0.62326,0 0,-2.4936 z m 8.97695,2.244 c -1.02723,-0.5131 -1.44952,-2.2606 -0.8601,-3.5591 0.36381,-0.8014 0.99506,-1.1773 1.97851,-1.1779 1.6017,0 2.37263,0.8089 2.37263,2.493 0,1.1806 -0.358,1.8993 -1.12809,2.2647 -0.6335,0.3006 -1.73915,0.291 -2.36295,-0.021 z m 1.92936,-1.3288 c 0.40885,-0.7906 0.13344,-2.1433 -0.46842,-2.3007 -0.68462,-0.179 -1.17594,0.3999 -1.17594,1.3855 0,1.3487 1.10278,1.9625 1.64436,0.9152 z m 2.80849,1.4845 c -0.27328,-0.058 -0.32061,-0.1605 -0.32061,-0.6924 l 0,-0.624 0.49414,0.2065 c 0.5455,0.2279 1.46516,0.2697 1.76413,0.08 0.10567,-0.067 0.1692,-0.2409 0.14117,-0.3863 -0.0368,-0.1914 -0.29834,-0.3294 -0.94322,-0.498 -0.49075,-0.1284 -1.01791,-0.347 -1.17145,-0.4859 -0.63883,-0.5781 -0.46768,-1.8904 0.2982,-2.2865 0.41435,-0.2142 1.61411,-0.2734 2.39155,-0.1179 0.40929,0.082 0.44528,0.1349 0.44528,0.6567 0,0.5523 -0.0105,0.5645 -0.39186,0.4518 -0.21551,-0.064 -0.71246,-0.1187 -1.10432,-0.1223 -0.62934,-0.01 -0.71768,0.03 -0.75732,0.309 -0.035,0.2458 0.0438,0.3356 0.35623,0.4061 1.90126,0.4293 2.18224,0.6413 2.18224,1.6463 0,0.5131 -0.0843,0.7777 -0.34387,1.0795 -0.32183,0.3742 -0.42013,0.4013 -1.53179,0.4226 -0.65334,0.013 -1.33217,-0.01 -1.5085,-0.045 z m 7.23145,-2.3918 0,-2.5014 0.65453,0 c 0.53298,0 0.66829,0.052 0.72849,0.2827 0.0737,0.2819 0.0749,0.2819 0.43336,0 0.55256,-0.4346 1.35505,-0.3784 1.77832,0.1245 l 0.34275,0.4074 0.45587,-0.4074 c 0.32009,-0.286 0.60654,-0.4072 0.96172,-0.4072 1.23415,0 1.48455,0.5155 1.48455,3.0564 l 0,1.9308 -0.64121,0 -0.64122,0 -0.0141,-1.5318 c -0.0178,-1.9078 -0.0988,-2.231 -0.5736,-2.2871 -0.61693,-0.073 -0.75901,0.2827 -0.83711,2.0948 l -0.0712,1.6528 -0.64121,0 -0.64122,0 -0.0403,-1.701 c -0.0409,-1.723 -0.1428,-2.075 -0.60084,-2.075 -0.49933,0 -0.6389,0.4159 -0.71246,2.1228 l -0.0712,1.6532 -0.67683,0.043 -0.67684,0.043 0,-2.5014 z m 8.33506,2.1418 c -0.64813,-0.6481 -0.64258,-1.7591 0.0119,-2.3739 0.30082,-0.2826 0.54474,-0.3502 1.42274,-0.3945 1.12867,-0.057 1.29209,-0.1954 0.77917,-0.6596 -0.22028,-0.1994 -0.44199,-0.2386 -1.03305,-0.1831 -0.41392,0.038 -0.8648,0.1179 -1.00195,0.1757 -0.21336,0.09 -0.24935,0.024 -0.24935,-0.4636 0,-0.6768 0.13873,-0.7397 1.63866,-0.7418 1.13356,0 1.83444,0.3144 2.06966,0.9331 0.0764,0.201 0.13895,1.1948 0.13895,2.2085 l 0,1.8432 -0.64122,0 c -0.59483,0 -0.64121,-0.027 -0.64121,-0.369 l 0,-0.3688 -0.43842,0.3688 c -0.60013,0.5051 -1.56412,0.5168 -2.05586,0.025 z m 2.10488,-0.9029 c 0.12359,-0.1371 0.2687,-0.4257 0.32249,-0.6412 0.0934,-0.374 0.0741,-0.3918 -0.42573,-0.3918 -0.69066,0 -1.07475,0.2207 -1.07475,0.6177 0,0.6435 0.73792,0.9037 1.17799,0.4153 z m 3.23924,1.1201 c -0.29561,-0.082 -0.36357,-0.198 -0.39936,-0.684 l -0.0431,-0.5858 0.54185,0.1934 c 0.29802,0.1062 0.80651,0.196 1.12998,0.1995 1.04643,0.011 1.24429,-0.755 0.23868,-0.9242 -1.50379,-0.2528 -1.89551,-0.5847 -1.89551,-1.6059 0,-0.4957 0.0837,-0.704 0.41652,-1.0369 0.37429,-0.3743 0.50974,-0.4165 1.33585,-0.4165 0.50564,0 1.11972,0.04 1.36465,0.089 0.41632,0.083 0.44527,0.1291 0.44527,0.7052 l 0,0.6161 -0.49414,-0.2064 c -1.02051,-0.4264 -2.25165,-0.1267 -1.78573,0.4346 0.0976,0.1176 0.31381,0.2142 0.48054,0.2146 0.57764,0 1.40981,0.3092 1.74628,0.6457 0.60079,0.6008 0.37874,1.8852 -0.3951,2.2853 -0.40822,0.2111 -2.0314,0.2572 -2.68665,0.076 z m 7.78216,-0.1709 c -0.62027,-0.4878 -0.85497,-1.0906 -0.85497,-2.196 0,-1.1052 0.2347,-1.7081 0.85497,-2.196 0.53982,-0.4246 1.3428,-0.3944 1.8963,0.071 l 0.43842,0.3689 0,-1.3029 0,-1.3028 0.67683,0.043 0.67685,0.043 0,3.3486 0,3.3486 -0.67685,0.043 c -0.6477,0.041 -0.67683,0.027 -0.67683,-0.3333 l 0,-0.3768 -0.43842,0.3689 c -0.5535,0.4658 -1.35648,0.496 -1.8963,0.071 z m 2.11732,-1.2626 c 0.4584,-0.8865 0.11651,-2.287 -0.5583,-2.287 -0.58595,0 -0.78374,0.1536 -0.93871,0.7292 -0.172,0.6388 -0.0569,1.4688 0.24561,1.7714 0.1137,0.1137 0.39288,0.2067 0.62037,0.2067 0.31394,0 0.46605,-0.1013 0.63103,-0.4203 z m 3.78982,1.3106 c -0.79987,-0.4078 -1.06764,-0.9037 -1.11943,-2.073 -0.0537,-1.2116 0.20185,-1.8398 0.95226,-2.3411 0.57671,-0.3853 1.79439,-0.442 2.43022,-0.1131 0.55884,0.2888 0.99864,1.055 1.10076,1.9172 l 0.0856,0.7223 -1.58726,0 c -1.49225,0 -1.58726,0.017 -1.58726,0.2849 0,0.77 1.02172,1.0647 2.20862,0.6372 0.78906,-0.2843 0.80647,-0.2769 0.75668,0.3247 -0.0387,0.468 -0.10616,0.5554 -0.54294,0.7044 -0.75969,0.259 -2.12785,0.227 -2.69721,-0.063 z m 1.98475,-2.9248 c 0,-0.3903 -0.44559,-0.8154 -0.85493,-0.8154 -0.26353,0 -0.49104,0.1139 -0.63313,0.3168 -0.39688,0.5665 -0.29069,0.6807 0.63313,0.6807 0.59877,0 0.85493,-0.055 0.85493,-0.1821 z m 5.23139,3.0861 c -0.0559,-0.056 -0.1017,-1.5978 -0.1017,-3.4264 l 0,-3.3249 0.71506,0 0.71503,0 -0.0382,3.3842 -0.0383,3.3842 -0.57515,0.042 c -0.31632,0.024 -0.62089,-0.01 -0.67684,-0.059 z m 3.46193,-0.176 c -1.0743,-0.5761 -1.47574,-2.3356 -0.81711,-3.5812 0.40591,-0.7675 1.06967,-1.1417 2.02473,-1.1415 0.99847,3e-4 1.64195,0.3594 2.03274,1.1344 0.64831,1.2856 0.2419,3.073 -0.81934,3.603 -0.65772,0.3286 -1.79374,0.3217 -2.42102,-0.015 z m 1.96395,-1.3179 c 0.24176,-0.4482 0.14665,-1.7816 -0.1481,-2.0764 -0.28688,-0.2868 -0.92335,-0.2886 -1.20858,-0.01 -0.27959,0.2796 -0.39671,1.4716 -0.19571,1.9916 0.28015,0.7248 1.18135,0.776 1.55239,0.088 z m 11.43124,1.179 c -0.47865,-0.4786 -0.61359,-1.2775 -0.54565,-3.2303 l 0.0446,-1.2824 0.67684,-0.043 0.67683,-0.043 0,1.6558 c 0,0.9107 0.0664,1.7799 0.14752,1.9314 0.21179,0.3958 0.77401,0.3458 1.12458,-0.1 0.25782,-0.3277 0.29532,-0.573 0.29532,-1.9314 l 0,-1.5559 0.67683,0.043 0.67683,0.043 0,2.4223 0,2.4224 -0.67683,0.043 c -0.64771,0.041 -0.67683,0.027 -0.67683,-0.3332 l 0,-0.3767 -0.43841,0.3688 c -0.6222,0.5236 -1.43787,0.5095 -1.98163,-0.035 z m 6.03877,0.1995 c -0.74832,-0.3256 -1.11656,-1.0025 -1.16804,-2.1467 -0.0749,-1.6659 0.5914,-2.4994 2.08426,-2.6074 1.41668,-0.1024 2.22421,0.6032 2.40127,2.0982 l 0.0856,0.7223 -1.58726,0 c -1.49225,0 -1.58727,0.017 -1.58727,0.2849 0,0.77 1.02173,1.0647 2.20864,0.6372 0.78905,-0.2843 0.80646,-0.2769 0.75667,0.3247 -0.0388,0.468 -0.10619,0.5554 -0.54295,0.7044 -0.67159,0.229 -2.10629,0.2196 -2.65088,-0.018 z m 1.93844,-2.9707 c 0,-0.3903 -0.44561,-0.8154 -0.85495,-0.8154 -0.26352,0 -0.49103,0.1139 -0.63315,0.3168 -0.39685,0.5665 -0.29066,0.6807 0.63315,0.6807 0.59877,0 0.85495,-0.055 0.85495,-0.1821 z m 6.40726,3.0463 c -0.27697,-0.056 -0.57916,-0.1486 -0.67156,-0.2058 -0.2792,-0.1726 -0.46189,-1.0955 -0.46273,-2.3378 -0.002,-1.1661 -0.004,-1.1755 -0.36564,-1.1755 -0.33442,0 -0.36114,-0.045 -0.32059,-0.5343 0.0355,-0.4292 0.1073,-0.5434 0.36482,-0.5799 0.27741,-0.039 0.32062,-0.1306 0.32062,-0.6768 l 0,-0.6314 0.71246,0 0.71246,0 0,0.6334 0,0.6335 0.67683,0.044 c 0.67031,0.043 0.67727,0.048 0.72107,0.5778 l 0.0442,0.5342 -0.72105,0 -0.72105,0 0,1.1828 c 0,1.3287 0.10543,1.5246 0.8208,1.5246 0.46618,0 0.47764,0.014 0.4346,0.5344 -0.0416,0.5022 -0.0742,0.5357 -0.54295,0.5568 -0.2743,0.012 -0.72532,-0.024 -1.00229,-0.079 z m 3.57007,0.1 c -0.89447,-0.3568 -1.30316,-1.2253 -1.30316,-2.4828 0,-1.5934 0.8108,-2.4762 2.27429,-2.4762 1.3206,0 2.04869,0.7101 2.25249,2.1969 l 0.0895,0.653 -1.58678,0 c -1.49177,0 -1.58677,0.017 -1.58677,0.2849 0,0.1568 0.13569,0.4207 0.30152,0.5866 0.31106,0.1475 0.42561,0.1914 0.97143,0.2371 0.36843,-0.036 0.87399,-0.1662 1.1234,-0.2906 l 0.45349,-0.2263 0,0.6236 c 0,0.5993 -0.18434,0.7275 -0.69779,0.8701 -0.82225,0.1779 -1.51456,0.2837 -2.29162,0.024 z m 1.84945,-3.1462 c 0,-0.3699 -0.44574,-0.8154 -0.81618,-0.8154 -0.44486,0 -0.89372,0.3689 -0.89372,0.7346 0,0.2263 0.11894,0.2629 0.85496,0.2629 0.59878,0 0.85494,-0.055 0.85494,-0.1821 z m 5.19586,2.9988 c -0.0405,-0.1056 -0.0559,-1.2154 -0.0344,-2.4662 l 0.0395,-2.2741 0.6412,0 0.64121,0 0,2.4223 0,2.4223 -0.6069,0.044 c -0.41039,0.03 -0.63077,-0.018 -0.68061,-0.1482 z m 2.74288,0.087 c -0.0559,-0.056 -0.1017,-1.1811 -0.1017,-2.5003 l 0,-2.3986 0.65455,0 c 0.53296,0 0.66828,0.052 0.72848,0.2827 0.0738,0.282 0.0749,0.282 0.43335,0 0.52571,-0.4134 1.37911,-0.3774 1.83403,0.078 l 0.36013,0.3601 0.42802,-0.3601 c 0.57262,-0.4819 1.38047,-0.4888 1.92998,-0.016 l 0.3998,0.3435 0.0459,2.1501 0.0459,2.15 -0.65149,0 -0.65145,0 0,-1.6826 c 0,-1.9003 -0.13061,-2.2701 -0.7473,-2.1152 -0.51012,0.128 -0.67761,0.7219 -0.67761,2.402 l 0,1.4114 -0.67686,-0.043 -0.67683,-0.043 -0.0351,-1.5675 c -0.0448,-1.9996 -0.094,-2.2085 -0.52007,-2.2085 -0.59049,0 -0.72203,0.3496 -0.79845,2.1228 l -0.0712,1.6532 -0.57514,0.042 c -0.31634,0.024 -0.6209,-0.01 -0.67683,-0.059 z m 8.25693,-0.2839 c -0.73272,-0.7327 -0.64489,-1.8781 0.18728,-2.442 0.36776,-0.2492 0.67486,-0.3206 1.37831,-0.3206 0.97044,0 1.1439,-0.1683 0.66593,-0.6464 -0.18586,-0.1858 -0.41622,-0.2243 -1.03306,-0.1724 -0.43663,0.036 -0.90609,0.1146 -1.04321,0.173 -0.21403,0.091 -0.24938,0.025 -0.24938,-0.4724 0,-0.5489 0.0258,-0.5836 0.49965,-0.6725 0.27479,-0.052 0.95556,-0.068 1.51282,-0.036 0.92183,0.052 1.04924,0.098 1.41243,0.5039 0.46899,0.5249 0.60636,1.3353 0.53838,3.1756 l -0.0447,1.2112 -0.67686,0.043 c -0.64771,0.041 -0.67683,0.027 -0.67683,-0.3332 l 0,-0.3767 -0.4384,0.3688 c -0.61271,0.5157 -1.51491,0.5142 -2.03231,-0.01 z m 2.17539,-1.0006 c 0.48141,-0.6121 0.39541,-0.9071 -0.26447,-0.9071 -0.59636,0 -1.00761,0.2834 -1.00761,0.6942 0,0.651 0.81962,0.7881 1.27208,0.2129 z m 8.62601,1.1972 c -0.0405,-0.1056 -0.056,-1.2154 -0.0343,-2.4662 l 0.0394,-2.2741 0.64122,0 0.64121,0 0,2.4223 0,2.4223 -0.60691,0.044 c -0.41036,0.03 -0.63073,-0.018 -0.68057,-0.1482 z m 2.74286,0.087 c -0.0559,-0.056 -0.10171,-1.1811 -0.10171,-2.5003 l 0,-2.3986 0.65456,0 c 0.52637,0 0.66861,0.054 0.72633,0.2744 0.0708,0.2709 0.0777,0.2709 0.52101,4e-4 0.49232,-0.3002 1.23969,-0.3577 1.66829,-0.1282 0.56746,0.3036 0.70456,0.8699 0.70456,2.9097 l 0,1.9307 -0.64121,0 -0.6412,0 -0.002,-1.5318 c -0.002,-1.6401 -0.16437,-2.2156 -0.64372,-2.2852 -0.15535,-0.023 -0.41022,0.052 -0.56639,0.1661 -0.24791,0.1809 -0.29301,0.4213 -0.35519,1.8935 l -0.0712,1.6862 -0.57514,0.042 c -0.31632,0.024 -0.62089,-0.01 -0.67684,-0.06 z m 5.66851,-0.2557 c -0.6481,-0.6481 -0.64254,-1.759 0.0119,-2.3739 0.30084,-0.2825 0.54475,-0.3502 1.42274,-0.3945 1.12867,-0.057 1.29209,-0.1954 0.77917,-0.6595 -0.22027,-0.1994 -0.44198,-0.2387 -1.03306,-0.1833 -0.41391,0.039 -0.86478,0.118 -1.00193,0.1759 -0.21337,0.09 -0.24936,0.024 -0.24936,-0.4636 0,-0.6769 0.13874,-0.7397 1.63866,-0.7418 1.14598,-0.01 1.8299,0.313 2.08587,0.9594 0.0853,0.2155 0.16389,1.1933 0.17457,2.1729 l 0.0194,1.7811 -0.67684,0.043 c -0.6477,0.041 -0.67683,0.027 -0.67683,-0.3332 l 0,-0.3767 -0.43839,0.3689 c -0.60015,0.505 -1.56415,0.5167 -2.05589,0.025 z m 2.10488,-0.9028 c 0.12359,-0.1372 0.26874,-0.4257 0.32252,-0.6412 0.0934,-0.3742 0.0741,-0.3919 -0.42574,-0.3919 -0.69065,0 -1.07478,0.2208 -1.07478,0.6178 0,0.6434 0.73795,0.9036 1.178,0.4153 z m 3.23924,1.1201 c -0.29703,-0.082 -0.36347,-0.1975 -0.39987,-0.6948 l -0.0437,-0.5964 0.59591,0.2102 c 0.76662,0.2705 1.61574,0.2698 1.84097,0 0.27564,-0.332 0.0659,-0.619 -0.52534,-0.7183 -1.50377,-0.2529 -1.89549,-0.5848 -1.89549,-1.606 0,-0.4958 0.0837,-0.7042 0.41651,-1.037 0.37427,-0.3743 0.50973,-0.4165 1.33585,-0.4165 0.50562,0 1.11974,0.04 1.36462,0.089 0.41633,0.083 0.44529,0.1291 0.44529,0.7051 l 0,0.6162 -0.49415,-0.2065 c -0.65297,-0.2729 -1.55881,-0.2661 -1.79072,0.014 -0.27279,0.3287 0.005,0.5249 1.04045,0.7335 0.63438,0.1279 0.97983,0.2842 1.20879,0.547 0.57202,0.6566 0.34902,1.8926 -0.4125,2.2864 -0.40825,0.2111 -2.0314,0.2572 -2.68668,0.076 z m 4.66142,0.038 c -0.0559,-0.056 -0.10168,-0.4438 -0.10168,-0.8617 l 0,-0.7599 0.71958,0 0.71955,0 -0.0427,0.8193 -0.0427,0.8193 -0.57515,0.042 c -0.31632,0.024 -0.62089,-0.01 -0.67684,-0.059 z m 2.99231,0 c -0.0559,-0.056 -0.10168,-0.4438 -0.10168,-0.8617 l 0,-0.7599 0.71959,0 0.71955,0 -0.0427,0.8193 -0.0427,0.8193 -0.57516,0.042 c -0.31634,0.024 -0.6209,-0.01 -0.67685,-0.059 z m 2.99232,0 c -0.0559,-0.056 -0.10168,-0.4438 -0.10168,-0.8617 l 0,-0.7599 0.71956,0 0.71958,0 -0.0427,0.8193 -0.0427,0.8193 -0.57514,0.042 c -0.31629,0.024 -0.62089,-0.01 -0.67684,-0.059 z m -112.66118,-5.9919 c 0.18201,-0.3001 0.39817,-0.6579 0.48034,-0.795 0.10135,-0.1691 0.32771,-0.2494 0.70357,-0.2494 l 0.55417,0 -0.64106,0.7481 c -0.43316,0.5055 -0.76863,0.7633 -1.03448,0.7949 l -0.39345,0.047 0.33091,-0.5457 z m 66.39226,-0.1182 0,-0.6412 0.71248,0 0.71245,0 0,0.6412 0,0.6413 -0.71245,0 -0.71248,0 z m 21.80121,0 0,-0.6412 0.71246,0 0.71245,0 0,0.6412 0,0.6413 -0.71245,0 -0.71246,0 z m -121.01203,-6.3529 c -0.13777,-0.08 -0.29807,-0.1169 -0.35623,-0.082 -0.23572,0.1435 -4.20799,-0.7879 -4.54527,-1.0659 -0.0906,-0.075 -0.44972,-0.2772 -0.79796,-0.45 -1.31271,-0.6514 -2.59042,-2.6785 -2.251,-3.5713 0.27597,-0.7258 0.30536,-1.9366 0.0893,-3.677 -0.26786,-2.1571 -0.28376,-3.6131 -0.0541,-4.9524 0.14047,-0.8192 0.12693,-1.4442 -0.078,-3.6006 -0.1364,-1.4351 -0.20549,-2.8146 -0.15354,-3.0655 0.0849,-0.4101 0.0557,-0.466 -0.28867,-0.5525 -0.2107,-0.053 -0.87534,-0.056 -1.47697,-0.01 -3.61325,0.2932 -3.2698,0.311 -4.45198,-0.2309 -1.09522,-0.502 -1.700332,-1.0589 -1.700332,-1.5649 0,-0.5847 0.809292,-1.0836 2.751092,-1.6957 3.92955,-1.23887 4.74997,-1.85397 4.82788,-3.61957 0.0393,-0.88828 -0.15384,-4.0417 -0.41056,-6.70715 l -0.23478,-2.43758 0.30433,-0.49248 c 0.50305,-0.81392 0.78775,-0.89237 2.25195,-0.62071 0.69751,0.12939 1.88897,0.39159 2.64769,0.58257 0.75872,0.19103 1.54179,0.34734 1.74017,0.34734 0.56568,0 1.85829,0.53715 2.22058,0.9228 0.32859,0.34976 0.3287,0.35152 0.25729,3.69574 -0.0554,2.594 -0.0316,3.3612 0.10615,3.41403 0.0977,0.0376 0.55931,-0.0341 1.02578,-0.15907 l 0.84812,-0.22723 0.96504,0.45158 c 0.53076,0.24839 1.03013,0.45159 1.10967,0.45159 0.0796,0 0.53725,0.18847 1.01707,0.41877 0.47983,0.2303 1.3834,0.6268 2.00788,0.8812 0.62451,0.2544 1.27371,0.6116 1.44265,0.7939 0.16896,0.1824 0.42744,0.3148 0.57446,0.2944 0.14699,-0.021 0.26912,0.027 0.27141,0.1054 0.002,0.078 -2.08165,0.7366 -4.63099,1.46267 -2.72038,0.7748 -4.70337,1.4116 -4.80035,1.5414 -0.0909,0.1216 -0.20403,0.5855 -0.25144,1.0308 -0.13644,1.2816 -0.15892,15.8841 -0.0273,17.6605 l 0.11896,1.6041 0.58994,0.3996 c 0.53213,0.3604 0.5883,0.4546 0.57303,0.9607 -0.0202,0.6718 -0.53972,1.9165 -0.79735,1.9105 -0.10075,-0.01 -0.29591,-0.07 -0.43367,-0.1502 z m 50.86947,0.01 c -0.13779,-0.081 -0.29807,-0.1188 -0.35624,-0.083 -0.28728,0.1749 -4.1699,-0.7905 -4.73247,-1.1766 -0.19824,-0.1362 -0.55283,-0.3294 -0.78796,-0.4295 -1.08756,-0.463 -2.39002,-2.6493 -2.0738,-3.4812 0.2724,-0.7164 0.30171,-1.944 0.089,-3.7249 -0.26636,-2.2302 -0.28104,-3.5796 -0.0534,-4.9071 0.14062,-0.8199 0.12803,-1.4377 -0.0718,-3.5293 -0.13327,-1.3945 -0.20207,-2.7727 -0.15293,-3.0627 0.0822,-0.4851 0.0587,-0.5349 -0.29482,-0.6236 -0.21128,-0.053 -0.87641,-0.057 -1.47803,-0.01 -3.61325,0.2932 -3.26979,0.311 -4.45198,-0.2309 -1.07653,-0.4934 -1.70033,-1.0583 -1.70033,-1.5398 0,-0.5996 0.81642,-1.1109 2.74504,-1.7189 3.93582,-1.24087 4.75332,-1.85317 4.83515,-3.62147 0.0417,-0.90158 -0.15951,-4.21078 -0.41224,-6.77952 -0.23277,-2.366 -0.23272,-2.36782 0.0707,-2.85878 0.50229,-0.81274 0.78743,-0.89119 2.25124,-0.61959 0.69751,0.12939 1.88897,0.39159 2.64769,0.58257 0.75871,0.19104 1.5418,0.34728 1.74016,0.34728 0.56568,0 1.85831,0.53721 2.22058,0.92281 0.32858,0.34975 0.32873,0.35157 0.25729,3.69579 -0.0553,2.594 -0.0315,3.3612 0.10619,3.41403 0.0977,0.0376 0.55927,-0.0341 1.02574,-0.15907 l 0.84812,-0.22723 0.96507,0.45159 c 0.53077,0.24838 1.03013,0.45158 1.10966,0.45158 0.0795,0 0.53723,0.18844 1.01708,0.41874 0.47983,0.2303 1.38337,0.6268 2.00787,0.8812 0.62452,0.2544 1.27369,0.6117 1.44264,0.7939 0.16895,0.1824 0.42746,0.3148 0.57445,0.2944 0.14699,-0.021 0.26912,0.027 0.27141,0.1054 0.002,0.078 -2.08165,0.7366 -4.63097,1.46267 -2.70576,0.7707 -4.70361,1.4119 -4.79964,1.5404 -0.0905,0.1211 -0.20408,0.6492 -0.25242,1.1734 -0.13686,1.4842 -0.15726,15.7229 -0.0251,17.5261 l 0.11807,1.6115 0.54771,0.3458 c 0.83395,0.5264 0.8761,0.7045 0.43694,1.8468 -0.38561,1.0029 -0.59576,1.1855 -1.05363,0.9153 z m 19.62933,-1.8902 c -1.35871,-0.4509 -2.1259,-1.134 -2.565,-2.2837 -0.19181,-0.5024 -0.2349,-0.944 -0.18794,-1.9266 0.0529,-1.1054 0.11724,-1.3659 0.48412,-1.9593 0.5417,-0.8761 1.31958,-1.4116 2.47446,-1.7032 1.58302,-0.3998 3.06695,-0.085 4.12978,0.8748 0.73149,0.6609 1.12705,1.5428 1.24078,2.7666 l 0.0931,1.002 -2.94154,0 c -2.5616,0 -2.94153,0.029 -2.94153,0.2209 0,0.4223 0.43507,1.0582 0.8823,1.2895 0.66529,0.3439 2.48197,0.215 3.6418,-0.2587 l 0.89056,-0.3636 0,0.962 0,0.9622 -0.89056,0.2538 c -1.148,0.3272 -3.54304,0.4179 -4.31037,0.1633 z m 2.91233,-5.2547 c -0.0722,-0.2519 -0.2507,-0.5774 -0.39662,-0.7232 -0.3786,-0.3786 -1.29747,-0.471 -1.84889,-0.1858 -0.41275,0.2135 -0.88055,0.8602 -0.88055,1.2173 0,0.096 0.58652,0.1496 1.6287,0.1496 l 1.6287,0 z m 26.71606,5.1953 c -1.74889,-0.627 -2.54727,-1.8496 -2.53536,-3.8825 0.0149,-2.5418 1.51965,-4.0235 4.11259,-4.0495 1.6248,-0.016 2.40001,0.2472 3.29504,1.1201 0.5623,0.5483 0.79349,0.906 0.96629,1.4948 0.63672,2.1694 -0.0948,4.2195 -1.81777,5.0942 -0.9899,0.5026 -2.93917,0.6108 -4.02079,0.2229 z m 2.60384,-1.7776 c 0.4895,-0.2355 0.79646,-1.0455 0.79646,-2.1015 0,-1.4548 -0.57214,-2.2832 -1.57687,-2.2832 -1.22223,0 -1.80276,0.8454 -1.71905,2.5033 0.0611,1.2105 0.36263,1.749 1.12016,2.0007 0.49709,0.1651 0.85214,0.1345 1.3793,-0.1193 z m 22.73514,1.8202 c -0.48908,-0.111 -0.95397,-0.2418 -1.03304,-0.2907 -0.16457,-0.1017 -0.19946,-1.7829 -0.037,-1.7801 0.0588,0 0.51335,0.1292 1.01014,0.285 1.25064,0.392 2.9073,0.3911 3.30023,-0.01 0.58211,-0.5821 0.17056,-1.0486 -1.06867,-1.2113 -0.98876,-0.1298 -2.18048,-0.4736 -2.60423,-0.7512 -0.70362,-0.4611 -0.9799,-1.9895 -0.52995,-2.9319 0.59514,-1.2464 2.59728,-1.6341 5.52089,-1.069 l 0.81935,0.1583 0,0.9568 0,0.9568 -0.81935,-0.2858 c -0.54691,-0.1908 -1.2138,-0.29 -2.00578,-0.2985 -1.01853,-0.011 -1.21515,0.026 -1.38928,0.2639 -0.44816,0.6112 -0.0975,0.8783 1.50706,1.1479 2.40477,0.4043 3.1823,1.0074 3.1823,2.469 0,1.0913 -0.38408,1.739 -1.29171,2.1784 -0.84304,0.4081 -3.19768,0.5135 -4.56102,0.2042 z m -69.14528,-5.2122 0,-5.2771 1.51475,0.04 1.51478,0.04 1.86941,3.5236 1.86941,3.5235 0.0381,-3.5591 0.0381,-3.5592 1.28,0 1.27996,0 0,5.277 0,5.277 -1.53178,-0.04 -1.5318,-0.04 -1.88649,-3.5623 -1.88651,-3.5623 -0.002,3.5979 -0.002,3.598 -1.28242,0 -1.28242,0 0,-5.277 z m 23.29737,5.0214 c -0.60491,-0.2065 -0.76086,-0.3392 -1.03307,-0.879 -0.2908,-0.5766 -0.3206,-0.8385 -0.3206,-2.8142 l 0,-2.1785 -0.64124,0 -0.6412,0 0,-0.8466 0,-0.8468 0.60559,-0.043 0.60558,-0.043 0.0415,-1.1043 0.0417,-1.1043 1.19917,0 1.19919,0 0.0416,1.1043 0.0416,1.1043 1.2468,0.041 1.2468,0.041 0,0.8494 0,0.8494 -1.28242,0 -1.28245,0 0.002,1.7454 c 0.004,2.3508 0.0556,2.4456 1.39088,2.4999 l 1.02939,0.042 0,0.9201 0,0.9199 -1.38932,-0.01 c -0.92147,-0.01 -1.62915,-0.088 -2.10173,-0.2493 z m 6.43243,-0.4926 c -0.44437,-1.5561 -1.80148,-6.7761 -1.80148,-6.929 0,-0.1053 0.40333,-0.1599 1.18114,-0.1599 l 1.18111,0 0.62976,2.5636 c 0.34638,1.4099 0.67043,2.5161 0.72013,2.458 0.0497,-0.058 0.29819,-0.9883 0.55225,-2.0669 0.25404,-1.0786 0.52362,-2.1847 0.59905,-2.4579 l 0.13716,-0.4968 1.05652,0 1.05649,0 0.13418,0.5343 c 0.0738,0.2939 0.34638,1.4161 0.60574,2.4936 0.25935,1.0776 0.50788,1.9593 0.55226,1.9593 0.0444,0 0.35826,-1.1221 0.6975,-2.4936 l 0.61683,-2.4936 1.19583,0 c 0.6577,0 1.19572,0.048 1.19556,0.1069 0,0.085 -0.88816,3.5129 -1.86541,7.2009 l -0.14292,0.5394 -1.37881,-0.04 -1.37882,-0.04 -0.5829,-2.4224 c -0.32061,-1.3323 -0.6154,-2.5163 -0.65509,-2.6312 -0.0397,-0.1149 -0.31112,0.7508 -0.6032,1.9237 -0.29206,1.1729 -0.59448,2.3728 -0.67205,2.6668 l -0.14106,0.5343 -1.33807,0 -1.33806,0 -0.21364,-0.7481 z m 21.99462,-3.1704 0,-3.9185 1.21117,0 1.21118,0 0,0.5881 0,0.5881 0.62628,-0.5773 c 0.78059,-0.7195 1.88083,-1.0611 2.56811,-0.7974 0.17682,0.068 0.22539,0.3089 0.22539,1.1186 l 0,1.032 -1.05152,-0.067 c -1.03534,-0.066 -1.05954,-0.06 -1.57132,0.4132 -0.63517,0.5874 -0.79489,1.3629 -0.79611,3.865 l -0.002,1.6743 -1.21118,0 -1.21117,0 0,-3.9186 z m 7.12455,-1.5674 0,-5.4859 1.21118,0 1.21118,0 0,2.9211 c 0,1.6066 0.0494,2.921 0.10969,2.921 0.0603,0 0.71631,-0.6092 1.45773,-1.3536 l 1.34804,-1.3537 1.4277,0.01 1.42777,0.01 -1.8524,1.7658 -1.85239,1.7658 0.71094,0.7611 c 0.39104,0.4187 1.31959,1.3864 2.06347,2.1504 l 1.3525,1.3894 -1.51732,0 -1.51727,0 -1.57829,-1.6743 -1.57825,-1.6743 -0.002,1.6743 -0.002,1.6743 -1.21117,0 -1.21118,0 0,-5.486 z m -85.50607,4.9248 c -0.71771,-0.477 -4.02859,-3.8252 -4.94323,-4.9989 -0.33464,-0.4295 -0.64303,-0.9412 -0.68533,-1.1371 -0.0423,-0.1959 -0.13698,-0.4524 -0.21042,-0.5699 -0.0734,-0.1176 -0.28263,-0.5023 -0.46483,-0.855 -0.85075,-1.6466 -4.19382,-6.2931 -4.59458,-6.386 -0.22929,-0.053 -0.17285,-0.2877 -0.97103,4.0349 -0.34731,1.8809 -0.67445,3.9533 -0.72697,4.6055 -0.0525,0.6519 -0.18381,1.4856 -0.29174,1.8523 -0.10793,0.3667 -0.19174,0.9414 -0.18622,1.2769 0.0129,0.79 -0.54756,1.9066 -1.0449,2.0815 -0.54615,0.1921 -0.96472,0.025 -1.81954,-0.7276 -1.57904,-1.3895 -2.53241,-2.4237 -3.34557,-3.6292 -0.78966,-1.1708 -0.83076,-1.2741 -0.75918,-1.9092 0.0452,-0.4013 0.3736,-1.2708 0.81615,-2.1611 0.47799,-0.9616 0.78192,-1.7828 0.8574,-2.3169 0.0643,-0.455 0.34222,-1.6507 0.61752,-2.6571 0.85785,-3.1358 1.09587,-4.2254 1.09999,-5.0358 0.0124,-2.4584 0.79537,-7.89507 1.27117,-8.82774 0.41655,-0.8165 0.55891,-0.88631 1.37591,-0.67436 0.91187,0.23652 1.07763,0.35951 2.91207,2.16063 1.47658,1.4497 1.55187,1.5532 1.89706,2.6088 0.56149,1.71697 0.79993,2.78497 0.80672,3.61327 0.004,0.4197 0.1053,1.0196 0.22639,1.3331 0.12106,0.3135 0.21412,0.7266 0.20679,0.9181 -0.007,0.1916 0.13667,0.5763 0.32001,0.855 0.18332,0.2787 0.85693,1.5007 1.49692,2.7154 0.96892,1.8391 1.94635,3.2773 2.22733,3.2773 0.16976,0 0.38235,-1.2615 0.50426,-2.9923 0.0745,-1.058 0.48653,-4.3602 0.91559,-7.3383 0.42906,-2.97807 0.85078,-5.95971 0.93714,-6.62584 0.0864,-0.66619 0.22293,-1.60374 0.30352,-2.08347 0.0806,-0.47974 0.12895,-1.52641 0.10747,-2.32587 -0.0435,-1.62061 0.004,-1.71186 0.87491,-1.71563 0.8939,-0.006 3.00937,0.69287 3.39653,1.11866 0.12785,0.14056 0.79622,0.7246 1.48527,1.29783 1.42787,1.18782 1.95321,1.95073 1.95321,2.83645 0,0.32954 -0.25135,1.38191 -0.55854,2.3386 -1.64595,5.12587 -2.62026,11.12917 -3.57778,22.04447 -0.16155,1.8417 -0.32863,3.4652 -0.37129,3.6078 -0.0868,0.2901 -0.85725,0.8081 -1.20324,0.8089 -0.12372,2e-4 -0.50844,-0.1879 -0.85494,-0.4181 z"
       id="path3080"
       inkscape:connector-curvature="0"
       sodipodi:nodetypes="csccscccssccscccccccscccccccccccsscccccccsscsccscccscccsscscccscccsccccccscccccsscccssccccsscccssccccsscccccccccscccccsccsccccccccsccccsccccccscccccssccccccccccsccccccccccccsccscssccccccsscccccccscscscccccccccsccccccccccscccccsccscccccccsscccccsscsscsccccccccccccccccccccccccccsccsccccccscccccccccsscccccsscsscccsccsccccccccccsscccccssccssccccsccssssscccccccccccscscccccccccccscsccccsccccccsscccsccccccscccccssccccccccccccscscccscccccccccccccccccscccccsccccccsscccccccscscscccccccccscccccccccscccccccccscccccccccssccccccccccccccccccccccccccccccscccccsccsccccscsccccssccccscsccccccccccscsccscccsccssccsccccccsccccccssccccccccccccccsscccccccccccsscccsccccccsscccccccccccccccccccscccccccccccccccccccccccccccsccccccccccccccccccccccccccccssccccscccccsccsccccccccccccccccccccccscccccccccccccsscccccccccccccccccccccscccsssaccccsscccccccccccscsccccccsssccc" />
  </g>
</svg>
