<?xml version="1.0" encoding="UTF-8" standalone="no"?>
<!-- Created with Inkscape (http://www.inkscape.org/) -->

<svg
   xmlns:dc="http://purl.org/dc/elements/1.1/"
   xmlns:cc="http://creativecommons.org/ns#"
   xmlns:rdf="http://www.w3.org/1999/02/22-rdf-syntax-ns#"
   xmlns:svg="http://www.w3.org/2000/svg"
   xmlns="http://www.w3.org/2000/svg"
   xmlns:sodipodi="http://sodipodi.sourceforge.net/DTD/sodipodi-0.dtd"
   xmlns:inkscape="http://www.inkscape.org/namespaces/inkscape"
   width="210mm"
   height="297mm"
   viewBox="0 0 210 297"
   version="1.1"
   id="svg8"
   inkscape:version="0.92+devel unknown"
   sodipodi:docname="wifi-home.svg">
  <defs
     id="defs2" />
  <sodipodi:namedview
     id="base"
     pagecolor="#ffffff"
     bordercolor="#666666"
     borderopacity="1.0"
     inkscape:pageopacity="0.0"
     inkscape:pageshadow="2"
     inkscape:zoom="0.35"
     inkscape:cx="400"
     inkscape:cy="560"
     inkscape:document-units="mm"
     inkscape:current-layer="layer1"
     inkscape:document-rotation="0"
     showgrid="false"
     inkscape:window-width="1175"
     inkscape:window-height="741"
     inkscape:window-x="306"
     inkscape:window-y="74"
     inkscape:window-maximized="0" />
  <metadata
     id="metadata5">
    <rdf:RDF>
      <cc:Work
         rdf:about="">
        <dc:format>image/svg+xml</dc:format>
        <dc:type
           rdf:resource="http://purl.org/dc/dcmitype/StillImage" />
        <dc:title></dc:title>
      </cc:Work>
    </rdf:RDF>
  </metadata>
  <g
     inkscape:label="Capa 1"
     inkscape:groupmode="layer"
     id="layer1">
    <path
       style="fill:#0092e3;fill-opacity:1;stroke-width:0.18245518"
       d="M 98.389398,190.89084 C 82.62353,189.9553 66.931151,184.19136 54.343373,174.71237 37.675667,162.16106 26.420524,143.9902 22.785983,123.76456 c -1.794754,-9.98752 -1.796072,-19.49902 -0.0041,-29.557738 4.830506,-27.11462 23.563941,-50.34048 49.213879,-61.01576 14.522445,-6.04411 30.540694,-7.74611 46.281244,-4.91753 21.95808,3.94585 41.52907,16.93286 53.87991,35.75386 12.43096,18.94309 16.43366,42.227058 11.07425,64.419578 -4.84381,20.05753 -17.36621,37.77357 -34.77473,49.19749 -14.78787,9.7042 -32.18649,14.3074 -50.067042,13.24638 z M 146.74002,121.30141 V 94.571732 h 4.47015 c 2.45859,0 4.47016,-0.0626 4.47016,-0.13919 0,-0.16974 -51.98223,-45.20092 -52.17818,-45.20092 -0.19376,0 -52.184748,45.03474 -52.185544,45.20327 -3.65e-4,0.0753 2.010924,0.13684 4.469508,0.13684 h 4.470152 v 26.729678 26.72969 h 43.241874 43.24188 z m -44.61029,12.88513 c -1.59718,-0.42202 -3.096477,-1.71696 -3.781863,-3.2664 -0.543349,-1.22832 -0.406207,-3.66034 0.271632,-4.81698 1.067695,-1.82189 2.735161,-2.77299 4.879701,-2.78333 2.22916,-0.0107 3.87699,1.00074 4.96842,3.04979 0.33813,0.63481 0.41027,1.0593 0.40996,2.41246 -3.6e-4,1.42708 -0.0643,1.7637 -0.48872,2.57079 -0.5747,1.0929 -1.5405,1.99242 -2.68082,2.49684 -0.89322,0.39511 -2.71038,0.56616 -3.57831,0.33683 z m -8.744583,-15.45896 c -1.371614,-1.06439 -2.46333,-2.02912 -2.426034,-2.14385 0.17423,-0.53597 2.925359,-2.56943 4.602229,-3.40166 2.728747,-1.35429 4.451008,-1.72058 8.028028,-1.70741 2.39234,0.009 3.18276,0.0817 4.37893,0.40396 2.80641,0.75603 6.33405,2.79455 7.51479,4.34259 0.46403,0.60837 0.46799,0.63484 0.13096,0.87503 -0.19115,0.13623 -1.37386,0.98462 -2.62824,1.88531 l -2.28069,1.63763 -0.67765,-0.61038 c -1.56863,-1.4129 -3.78555,-2.14497 -6.52933,-2.15613 -2.75973,-0.0112 -5.176236,0.77071 -6.73556,2.17946 -0.383955,0.34688 -0.739836,0.63069 -0.790845,0.63069 -0.05101,0 -1.214976,-0.87086 -2.586588,-1.93524 z m -9.88527,-9.89324 -2.47535,-2.12934 1.319058,-1.22516 c 2.725583,-2.53155 7.072081,-5.14127 10.67065,-6.406858 3.76718,-1.32488 8.854665,-1.95883 12.954805,-1.61428 5.5185,0.46373 10.29253,2.07449 14.58866,4.922208 1.99311,1.32114 4.87687,3.8086 4.7998,4.14017 -0.0586,0.25223 -4.62356,4.1067 -4.86365,4.1067 -0.076,0 -0.42119,-0.29415 -0.76702,-0.65367 -3.07311,-3.19479 -8.71764,-5.61918 -14.17606,-6.08877 -4.43743,-0.38174 -9.540216,0.60666 -13.505419,2.61598 -1.375101,0.69681 -4.039857,2.55273 -5.108626,3.558 l -0.961499,0.90437 z m -9.543209,-9.743688 -2.446881,-2.03505 1.700827,-1.62956 c 6.612338,-6.33528 15.865339,-10.4729 25.599675,-11.44729 2.850831,-0.28536 9.435501,-0.13402 12.077291,0.27758 8.81079,1.37275 16.85437,5.28141 22.7992,11.07893 l 1.81685,1.77183 -2.36422,1.86047 c -1.30032,1.02326 -2.45472,1.930678 -2.56533,2.016478 -0.12852,0.0997 -0.68156,-0.30942 -1.53203,-1.133328 -2.55572,-2.47587 -5.17456,-4.26536 -8.76318,-5.98799 -13.92128,-6.68257 -31.678944,-4.07489 -42.604048,6.256328 -0.593866,0.56158 -1.122849,1.01782 -1.175515,1.01386 -0.05267,-0.004 -1.196855,-0.92297 -2.542639,-2.042258 z"
       id="path4281"
       inkscape:connector-curvature="0"
       inkscape:export-xdpi="77.393196"
       inkscape:export-ydpi="77.393196" />
  </g>
</svg>
